<svg height="640" viewBox="-24 0 480 480.108" width="640" xmlns="http://www.w3.org/2000/svg"><path d="M168.055 432c0 8.836-7.164 16-16 16s-16-7.164-16-16 7.164-16 16-16 16 7.164 16 16zM360.055 432c0 8.836-7.164 16-16 16s-16-7.164-16-16 7.164-16 16-16 16 7.164 16 16zm0 0"/><path d="M392.055 192h-16V32h-176v160h-48v160h-40V0h-112v48h64v352h52.32c-17.297 19.219-16.262 48.68 2.34 66.64 18.597 17.958 48.078 17.958 66.68 0 18.597-17.96 19.632-47.421 2.34-66.64h120.64c-17.297 19.219-16.262 48.68 2.34 66.64 18.598 17.958 48.078 17.958 66.68 0 18.597-17.96 19.632-47.421 2.34-66.64h52.32v-48h-40zm-88-144v80h-32V48zm-88 0h40v96h64V48h40v144h-144zm-48 160h208v32h-208zm0 48h208v96h-208zm-152-224V16h48v16zm64-16h16v240h-16zm0 256h16v80h-16zm104 160c0 17.672-14.328 32-32 32s-32-14.328-32-32 14.328-32 32-32 32 14.328 32 32zm192 0c0 17.672-14.328 32-32 32s-32-14.328-32-32 14.328-32 32-32 32 14.328 32 32zm40-64v16h-336v-16zm0 0"/><path d="M344.055 320h-16v16h32v-40h-16zM232.055 160h16v16h-16zm0 0"/></svg>